<?xml version="1.0" standalone="no"?>
<svg version="1.0" xmlns="http://www.w3.org/2000/svg"
 width="1800" height="350" viewBox="-50 0 1800 350"
 preserveAspectRatio="xMidYMid meet">
<metadata>DigiStratum logo - spaced with proper z-layering (gray->white->dark blue->blue fill)</metadata>

<g transform="translate(900,175) scale(1.04) translate(-900,-175)">
<g transform="translate(0,325) scale(0.1,-0.1)">

<!-- ============ LAYER 1: ALL GRAY STROKES (bottom) ============ -->
<g fill="#666666" stroke="#666666" stroke-width="480" stroke-linejoin="round">
  <!-- D --> <path transform="translate(0,0)" d="M1390 2704 l0 -236 -32 6 c-149 31 -325 27 -448 -10 -141 -41 -288 -144 -391 -272 -114 -141 -168 -282 -176 -458 -9 -185 33 -340 132 -490 99 -149 249 -266 407 -318 314 -105 634 -21 863 226 51 55 79 98 120 183 29 60 59 134 65 164 14 61 19 359 7 379 -6 9 -59 12 -208 12 -109 0 -199 -3 -199 -6 0 -3 7 -34 16 -68 21 -80 14 -201 -15 -276 -42 -110 -142 -210 -251 -251 -46 -17 -72 -20 -155 -17 -88 3 -107 7 -155 33 -73 40 -157 126 -200 205 -34 64 -35 67 -35 185 0 112 2 124 29 179 37 76 133 172 211 211 56 28 68 30 170 30 104 0 114 -2 175 -32 36 -18 89 -53 117 -78 33 -29 57 -44 65 -39 7 4 75 55 151 113 l137 104 0 379 0 378 -200 0 -200 0 0 -236z"/>
  <!-- I1 --> <path transform="translate(80,0)" d="M2205 2473 c-75 -39 -115 -100 -115 -173 0 -99 92 -190 191 -190 153 0 246 193 146 306 -60 69 -154 93 -222 57z"/>
  <!-- I1 --> <path transform="translate(80,0)" d="M2080 1385 l0 -515 200 0 200 0 0 515 0 515 -200 0 -200 0 0 -515z"/>
  <!-- G --> <path transform="translate(160,0)" d="M3235 2475 c-284 -62 -533 -304 -612 -595 -27 -101 -25 -311 5 -414 74 -258 275 -469 529 -557 101 -35 316 -41 457 -14 l39 8 -5 -94 c-6 -108 -28 -174 -82 -248 l-37 -49 53 -49 c166 -154 203 -183 234 -183 44 0 148 168 193 313 21 69 25 121 36 439 l5 157 -137 104 c-76 57 -144 107 -151 111 -8 5 -32 -10 -64 -38 -28 -25 -79 -60 -112 -78 -59 -32 -65 -33 -176 -33 -114 0 -115 0 -187 39 -89 47 -154 115 -196 204 -30 63 -32 74 -32 177 0 104 2 113 33 178 42 86 128 174 208 213 54 27 68 29 169 29 101 0 115 -2 169 -29 79 -39 165 -127 207 -211 29 -59 34 -81 37 -159 3 -65 0 -107 -12 -145 -9 -30 -16 -58 -16 -63 0 -4 90 -8 199 -8 149 0 202 3 208 13 12 18 7 325 -6 377 -37 144 -110 271 -220 381 -124 124 -252 193 -419 225 -90 17 -236 17 -317 -1z"/>
  <!-- I2 --> <path transform="translate(240,0)" d="M4455 2476 c-38 -17 -90 -72 -104 -109 -34 -90 10 -191 103 -239 148 -76 323 101 247 250 -48 94 -158 137 -246 98z"/>
  <!-- I2 --> <path transform="translate(240,0)" d="M4330 1385 l0 -515 200 0 200 0 0 515 0 515 -200 0 -200 0 0 -515z"/>
  <!-- S --> <path transform="translate(320,0)" d="M5420 2456 c-221 -77 -389 -221 -480 -411 -73 -151 -81 -189 -82 -374 0 -87 2 -164 6 -170 5 -8 168 -11 582 -11 412 0 574 -3 574 -11 0 -6 -30 -41 -67 -78 -89 -88 -159 -123 -262 -129 -119 -7 -177 10 -281 80 l-90 61 -33 -23 c-76 -55 -257 -202 -257 -209 0 -13 121 -125 173 -160 68 -47 160 -87 252 -112 110 -29 297 -29 407 0 264 69 469 268 560 541 29 88 32 105 32 240 1 80 -2 157 -7 173 l-7 27 -581 0 -581 0 20 33 c27 42 142 140 201 169 40 20 61 23 161 23 109 0 118 -2 165 -29 28 -16 78 -51 112 -78 43 -34 67 -47 77 -41 44 25 275 210 276 220 0 6 -44 48 -97 93 -107 89 -256 170 -351 189 -29 6 -121 11 -205 10 -131 0 -161 -3 -217 -23z"/>
  <!-- T --> <path transform="translate(400,0)" d="M6680 2740 l0 -240 -75 0 -75 0 0 -190 0 -190 73 0 74 0 6 -182 c4 -99 7 -285 7 -413 l0 -231 31 -85 c38 -104 98 -222 140 -271 54 -66 66 -60 286 144 l53 49 -40 58 c-78 114 -75 90 -78 534 l-3 397 75 0 76 0 0 190 0 190 -75 0 -75 0 0 240 0 240 -200 0 -200 0 0 -240z"/>
  <!-- R --> <path transform="translate(480,0)" d="M7450 1685 l0 -815 200 0 200 0 0 460 0 461 26 52 c59 118 151 209 245 243 32 11 184 44 205 44 9 0 35 299 28 326 -8 31 -18 33 -120 23 -126 -12 -217 -34 -306 -73 l-78 -34 0 64 0 64 -200 0 -200 0 0 -815z"/>
  <!-- A --> <path transform="translate(560,0)" d="M8940 2456 c-165 -59 -252 -116 -369 -243 -79 -86 -140 -199 -173 -322 -29 -110 -29 -296 1 -409 67 -257 268 -475 512 -556 201 -67 420 -54 622 38 l77 35 0 -64 0 -65 190 0 190 0 -6 398 c-3 218 -9 447 -13 507 l-6 110 -202 3 c-112 1 -203 0 -203 -4 0 -3 7 -34 16 -68 21 -80 14 -201 -15 -276 -42 -110 -142 -210 -251 -251 -46 -17 -72 -20 -155 -17 -88 3 -107 7 -155 33 -73 40 -157 126 -200 205 -34 64 -35 67 -35 185 0 112 2 124 29 178 40 83 128 170 213 210 63 30 75 32 173 32 97 0 110 -2 170 -31 36 -17 88 -52 117 -78 37 -33 57 -45 67 -39 43 24 276 210 276 220 0 6 -44 48 -97 93 -107 89 -256 170 -351 189 -29 6 -121 11 -205 10 -132 0 -161 -4 -217 -23z"/>
  <!-- T2 --> <path transform="translate(640,0)" d="M10220 2740 l0 -240 -75 0 -75 0 0 -190 0 -190 73 0 74 0 6 -182 c4 -99 7 -285 7 -413 l0 -231 31 -85 c38 -104 98 -222 140 -271 54 -66 66 -60 286 144 l53 49 -40 58 c-78 114 -75 90 -78 534 l-3 397 75 0 76 0 0 190 0 190 -75 0 -75 0 0 240 0 240 -200 0 -200 0 0 -240z"/>
  <!-- U --> <path transform="translate(720,0)" d="M10947 2018 l6 -483 38 -100 c21 -55 56 -129 76 -165 51 -86 180 -215 275 -274 150 -92 234 -108 636 -121 l192 -6 0 816 0 815 -200 0 -200 0 0 -618 0 -619 -62 9 c-139 18 -290 132 -339 253 -24 60 -24 61 -27 518 l-3 457 -199 0 -199 0 6 -482z"/>
  <!-- M --> <path transform="translate(800,0)" d="M12945 2476 c-225 -51 -441 -220 -545 -426 -83 -164 -80 -145 -90 -624 -5 -237 -10 -459 -10 -493 l0 -63 199 0 200 0 3 458 c5 544 0 519 112 638 l75 79 1 -397 0 -398 220 0 220 0 0 395 c0 233 4 395 9 395 5 0 41 -35 80 -77 108 -117 104 -94 109 -635 l4 -458 199 0 199 0 0 28 c-3 372 -22 924 -35 984 -30 150 -133 308 -280 431 -79 66 -175 116 -285 147 -96 28 -297 36 -385 16z"/>
</g>

<!-- ============ LAYER 2: ALL WHITE STROKES ============ -->
<g fill="#FFFFFF" stroke="#FFFFFF" stroke-width="380" stroke-linejoin="round">
  <!-- D --> <path transform="translate(0,0)" d="M1390 2704 l0 -236 -32 6 c-149 31 -325 27 -448 -10 -141 -41 -288 -144 -391 -272 -114 -141 -168 -282 -176 -458 -9 -185 33 -340 132 -490 99 -149 249 -266 407 -318 314 -105 634 -21 863 226 51 55 79 98 120 183 29 60 59 134 65 164 14 61 19 359 7 379 -6 9 -59 12 -208 12 -109 0 -199 -3 -199 -6 0 -3 7 -34 16 -68 21 -80 14 -201 -15 -276 -42 -110 -142 -210 -251 -251 -46 -17 -72 -20 -155 -17 -88 3 -107 7 -155 33 -73 40 -157 126 -200 205 -34 64 -35 67 -35 185 0 112 2 124 29 179 37 76 133 172 211 211 56 28 68 30 170 30 104 0 114 -2 175 -32 36 -18 89 -53 117 -78 33 -29 57 -44 65 -39 7 4 75 55 151 113 l137 104 0 379 0 378 -200 0 -200 0 0 -236z"/>
  <!-- I1 --> <path transform="translate(80,0)" d="M2205 2473 c-75 -39 -115 -100 -115 -173 0 -99 92 -190 191 -190 153 0 246 193 146 306 -60 69 -154 93 -222 57z"/>
  <!-- I1 --> <path transform="translate(80,0)" d="M2080 1385 l0 -515 200 0 200 0 0 515 0 515 -200 0 -200 0 0 -515z"/>
  <!-- G --> <path transform="translate(160,0)" d="M3235 2475 c-284 -62 -533 -304 -612 -595 -27 -101 -25 -311 5 -414 74 -258 275 -469 529 -557 101 -35 316 -41 457 -14 l39 8 -5 -94 c-6 -108 -28 -174 -82 -248 l-37 -49 53 -49 c166 -154 203 -183 234 -183 44 0 148 168 193 313 21 69 25 121 36 439 l5 157 -137 104 c-76 57 -144 107 -151 111 -8 5 -32 -10 -64 -38 -28 -25 -79 -60 -112 -78 -59 -32 -65 -33 -176 -33 -114 0 -115 0 -187 39 -89 47 -154 115 -196 204 -30 63 -32 74 -32 177 0 104 2 113 33 178 42 86 128 174 208 213 54 27 68 29 169 29 101 0 115 -2 169 -29 79 -39 165 -127 207 -211 29 -59 34 -81 37 -159 3 -65 0 -107 -12 -145 -9 -30 -16 -58 -16 -63 0 -4 90 -8 199 -8 149 0 202 3 208 13 12 18 7 325 -6 377 -37 144 -110 271 -220 381 -124 124 -252 193 -419 225 -90 17 -236 17 -317 -1z"/>
  <!-- I2 --> <path transform="translate(240,0)" d="M4455 2476 c-38 -17 -90 -72 -104 -109 -34 -90 10 -191 103 -239 148 -76 323 101 247 250 -48 94 -158 137 -246 98z"/>
  <!-- I2 --> <path transform="translate(240,0)" d="M4330 1385 l0 -515 200 0 200 0 0 515 0 515 -200 0 -200 0 0 -515z"/>
  <!-- S --> <path transform="translate(320,0)" d="M5420 2456 c-221 -77 -389 -221 -480 -411 -73 -151 -81 -189 -82 -374 0 -87 2 -164 6 -170 5 -8 168 -11 582 -11 412 0 574 -3 574 -11 0 -6 -30 -41 -67 -78 -89 -88 -159 -123 -262 -129 -119 -7 -177 10 -281 80 l-90 61 -33 -23 c-76 -55 -257 -202 -257 -209 0 -13 121 -125 173 -160 68 -47 160 -87 252 -112 110 -29 297 -29 407 0 264 69 469 268 560 541 29 88 32 105 32 240 1 80 -2 157 -7 173 l-7 27 -581 0 -581 0 20 33 c27 42 142 140 201 169 40 20 61 23 161 23 109 0 118 -2 165 -29 28 -16 78 -51 112 -78 43 -34 67 -47 77 -41 44 25 275 210 276 220 0 6 -44 48 -97 93 -107 89 -256 170 -351 189 -29 6 -121 11 -205 10 -131 0 -161 -3 -217 -23z"/>
  <!-- T --> <path transform="translate(400,0)" d="M6680 2740 l0 -240 -75 0 -75 0 0 -190 0 -190 73 0 74 0 6 -182 c4 -99 7 -285 7 -413 l0 -231 31 -85 c38 -104 98 -222 140 -271 54 -66 66 -60 286 144 l53 49 -40 58 c-78 114 -75 90 -78 534 l-3 397 75 0 76 0 0 190 0 190 -75 0 -75 0 0 240 0 240 -200 0 -200 0 0 -240z"/>
  <!-- R --> <path transform="translate(480,0)" d="M7450 1685 l0 -815 200 0 200 0 0 460 0 461 26 52 c59 118 151 209 245 243 32 11 184 44 205 44 9 0 35 299 28 326 -8 31 -18 33 -120 23 -126 -12 -217 -34 -306 -73 l-78 -34 0 64 0 64 -200 0 -200 0 0 -815z"/>
  <!-- A --> <path transform="translate(560,0)" d="M8940 2456 c-165 -59 -252 -116 -369 -243 -79 -86 -140 -199 -173 -322 -29 -110 -29 -296 1 -409 67 -257 268 -475 512 -556 201 -67 420 -54 622 38 l77 35 0 -64 0 -65 190 0 190 0 -6 398 c-3 218 -9 447 -13 507 l-6 110 -202 3 c-112 1 -203 0 -203 -4 0 -3 7 -34 16 -68 21 -80 14 -201 -15 -276 -42 -110 -142 -210 -251 -251 -46 -17 -72 -20 -155 -17 -88 3 -107 7 -155 33 -73 40 -157 126 -200 205 -34 64 -35 67 -35 185 0 112 2 124 29 178 40 83 128 170 213 210 63 30 75 32 173 32 97 0 110 -2 170 -31 36 -17 88 -52 117 -78 37 -33 57 -45 67 -39 43 24 276 210 276 220 0 6 -44 48 -97 93 -107 89 -256 170 -351 189 -29 6 -121 11 -205 10 -132 0 -161 -4 -217 -23z"/>
  <!-- T2 --> <path transform="translate(640,0)" d="M10220 2740 l0 -240 -75 0 -75 0 0 -190 0 -190 73 0 74 0 6 -182 c4 -99 7 -285 7 -413 l0 -231 31 -85 c38 -104 98 -222 140 -271 54 -66 66 -60 286 144 l53 49 -40 58 c-78 114 -75 90 -78 534 l-3 397 75 0 76 0 0 190 0 190 -75 0 -75 0 0 240 0 240 -200 0 -200 0 0 -240z"/>
  <!-- U --> <path transform="translate(720,0)" d="M10947 2018 l6 -483 38 -100 c21 -55 56 -129 76 -165 51 -86 180 -215 275 -274 150 -92 234 -108 636 -121 l192 -6 0 816 0 815 -200 0 -200 0 0 -618 0 -619 -62 9 c-139 18 -290 132 -339 253 -24 60 -24 61 -27 518 l-3 457 -199 0 -199 0 6 -482z"/>
  <!-- M --> <path transform="translate(800,0)" d="M12945 2476 c-225 -51 -441 -220 -545 -426 -83 -164 -80 -145 -90 -624 -5 -237 -10 -459 -10 -493 l0 -63 199 0 200 0 3 458 c5 544 0 519 112 638 l75 79 1 -397 0 -398 220 0 220 0 0 395 c0 233 4 395 9 395 5 0 41 -35 80 -77 108 -117 104 -94 109 -635 l4 -458 199 0 199 0 0 28 c-3 372 -22 924 -35 984 -30 150 -133 308 -280 431 -79 66 -175 116 -285 147 -96 28 -297 36 -385 16z"/>
</g>

<!-- ============ LAYER 3: ALL DARK BLUE STROKES ============ -->
<g fill="#2171a1" stroke="#2171a1" stroke-width="80" stroke-linejoin="round">
  <!-- D --> <path transform="translate(0,0)" d="M1390 2704 l0 -236 -32 6 c-149 31 -325 27 -448 -10 -141 -41 -288 -144 -391 -272 -114 -141 -168 -282 -176 -458 -9 -185 33 -340 132 -490 99 -149 249 -266 407 -318 314 -105 634 -21 863 226 51 55 79 98 120 183 29 60 59 134 65 164 14 61 19 359 7 379 -6 9 -59 12 -208 12 -109 0 -199 -3 -199 -6 0 -3 7 -34 16 -68 21 -80 14 -201 -15 -276 -42 -110 -142 -210 -251 -251 -46 -17 -72 -20 -155 -17 -88 3 -107 7 -155 33 -73 40 -157 126 -200 205 -34 64 -35 67 -35 185 0 112 2 124 29 179 37 76 133 172 211 211 56 28 68 30 170 30 104 0 114 -2 175 -32 36 -18 89 -53 117 -78 33 -29 57 -44 65 -39 7 4 75 55 151 113 l137 104 0 379 0 378 -200 0 -200 0 0 -236z"/>
  <!-- I1 --> <path transform="translate(80,0)" d="M2205 2473 c-75 -39 -115 -100 -115 -173 0 -99 92 -190 191 -190 153 0 246 193 146 306 -60 69 -154 93 -222 57z"/>
  <!-- I1 --> <path transform="translate(80,0)" d="M2080 1385 l0 -515 200 0 200 0 0 515 0 515 -200 0 -200 0 0 -515z"/>
  <!-- G --> <path transform="translate(160,0)" d="M3235 2475 c-284 -62 -533 -304 -612 -595 -27 -101 -25 -311 5 -414 74 -258 275 -469 529 -557 101 -35 316 -41 457 -14 l39 8 -5 -94 c-6 -108 -28 -174 -82 -248 l-37 -49 53 -49 c166 -154 203 -183 234 -183 44 0 148 168 193 313 21 69 25 121 36 439 l5 157 -137 104 c-76 57 -144 107 -151 111 -8 5 -32 -10 -64 -38 -28 -25 -79 -60 -112 -78 -59 -32 -65 -33 -176 -33 -114 0 -115 0 -187 39 -89 47 -154 115 -196 204 -30 63 -32 74 -32 177 0 104 2 113 33 178 42 86 128 174 208 213 54 27 68 29 169 29 101 0 115 -2 169 -29 79 -39 165 -127 207 -211 29 -59 34 -81 37 -159 3 -65 0 -107 -12 -145 -9 -30 -16 -58 -16 -63 0 -4 90 -8 199 -8 149 0 202 3 208 13 12 18 7 325 -6 377 -37 144 -110 271 -220 381 -124 124 -252 193 -419 225 -90 17 -236 17 -317 -1z"/>
  <!-- I2 --> <path transform="translate(240,0)" d="M4455 2476 c-38 -17 -90 -72 -104 -109 -34 -90 10 -191 103 -239 148 -76 323 101 247 250 -48 94 -158 137 -246 98z"/>
  <!-- I2 --> <path transform="translate(240,0)" d="M4330 1385 l0 -515 200 0 200 0 0 515 0 515 -200 0 -200 0 0 -515z"/>
  <!-- S --> <path transform="translate(320,0)" d="M5420 2456 c-221 -77 -389 -221 -480 -411 -73 -151 -81 -189 -82 -374 0 -87 2 -164 6 -170 5 -8 168 -11 582 -11 412 0 574 -3 574 -11 0 -6 -30 -41 -67 -78 -89 -88 -159 -123 -262 -129 -119 -7 -177 10 -281 80 l-90 61 -33 -23 c-76 -55 -257 -202 -257 -209 0 -13 121 -125 173 -160 68 -47 160 -87 252 -112 110 -29 297 -29 407 0 264 69 469 268 560 541 29 88 32 105 32 240 1 80 -2 157 -7 173 l-7 27 -581 0 -581 0 20 33 c27 42 142 140 201 169 40 20 61 23 161 23 109 0 118 -2 165 -29 28 -16 78 -51 112 -78 43 -34 67 -47 77 -41 44 25 275 210 276 220 0 6 -44 48 -97 93 -107 89 -256 170 -351 189 -29 6 -121 11 -205 10 -131 0 -161 -3 -217 -23z"/>
  <!-- T --> <path transform="translate(400,0)" d="M6680 2740 l0 -240 -75 0 -75 0 0 -190 0 -190 73 0 74 0 6 -182 c4 -99 7 -285 7 -413 l0 -231 31 -85 c38 -104 98 -222 140 -271 54 -66 66 -60 286 144 l53 49 -40 58 c-78 114 -75 90 -78 534 l-3 397 75 0 76 0 0 190 0 190 -75 0 -75 0 0 240 0 240 -200 0 -200 0 0 -240z"/>
  <!-- R --> <path transform="translate(480,0)" d="M7450 1685 l0 -815 200 0 200 0 0 460 0 461 26 52 c59 118 151 209 245 243 32 11 184 44 205 44 9 0 35 299 28 326 -8 31 -18 33 -120 23 -126 -12 -217 -34 -306 -73 l-78 -34 0 64 0 64 -200 0 -200 0 0 -815z"/>
  <!-- A --> <path transform="translate(560,0)" d="M8940 2456 c-165 -59 -252 -116 -369 -243 -79 -86 -140 -199 -173 -322 -29 -110 -29 -296 1 -409 67 -257 268 -475 512 -556 201 -67 420 -54 622 38 l77 35 0 -64 0 -65 190 0 190 0 -6 398 c-3 218 -9 447 -13 507 l-6 110 -202 3 c-112 1 -203 0 -203 -4 0 -3 7 -34 16 -68 21 -80 14 -201 -15 -276 -42 -110 -142 -210 -251 -251 -46 -17 -72 -20 -155 -17 -88 3 -107 7 -155 33 -73 40 -157 126 -200 205 -34 64 -35 67 -35 185 0 112 2 124 29 178 40 83 128 170 213 210 63 30 75 32 173 32 97 0 110 -2 170 -31 36 -17 88 -52 117 -78 37 -33 57 -45 67 -39 43 24 276 210 276 220 0 6 -44 48 -97 93 -107 89 -256 170 -351 189 -29 6 -121 11 -205 10 -132 0 -161 -4 -217 -23z"/>
  <!-- T2 --> <path transform="translate(640,0)" d="M10220 2740 l0 -240 -75 0 -75 0 0 -190 0 -190 73 0 74 0 6 -182 c4 -99 7 -285 7 -413 l0 -231 31 -85 c38 -104 98 -222 140 -271 54 -66 66 -60 286 144 l53 49 -40 58 c-78 114 -75 90 -78 534 l-3 397 75 0 76 0 0 190 0 190 -75 0 -75 0 0 240 0 240 -200 0 -200 0 0 -240z"/>
  <!-- U --> <path transform="translate(720,0)" d="M10947 2018 l6 -483 38 -100 c21 -55 56 -129 76 -165 51 -86 180 -215 275 -274 150 -92 234 -108 636 -121 l192 -6 0 816 0 815 -200 0 -200 0 0 -618 0 -619 -62 9 c-139 18 -290 132 -339 253 -24 60 -24 61 -27 518 l-3 457 -199 0 -199 0 6 -482z"/>
  <!-- M --> <path transform="translate(800,0)" d="M12945 2476 c-225 -51 -441 -220 -545 -426 -83 -164 -80 -145 -90 -624 -5 -237 -10 -459 -10 -493 l0 -63 199 0 200 0 3 458 c5 544 0 519 112 638 l75 79 1 -397 0 -398 220 0 220 0 0 395 c0 233 4 395 9 395 5 0 41 -35 80 -77 108 -117 104 -94 109 -635 l4 -458 199 0 199 0 0 28 c-3 372 -22 924 -35 984 -30 150 -133 308 -280 431 -79 66 -175 116 -285 147 -96 28 -297 36 -385 16z"/>
</g>

<!-- ============ LAYER 4: ALL BLUE FILLS (top) ============ -->
<g fill="#3498db" stroke="none">
  <!-- D --> <path transform="translate(0,0)" d="M1390 2704 l0 -236 -32 6 c-149 31 -325 27 -448 -10 -141 -41 -288 -144 -391 -272 -114 -141 -168 -282 -176 -458 -9 -185 33 -340 132 -490 99 -149 249 -266 407 -318 314 -105 634 -21 863 226 51 55 79 98 120 183 29 60 59 134 65 164 14 61 19 359 7 379 -6 9 -59 12 -208 12 -109 0 -199 -3 -199 -6 0 -3 7 -34 16 -68 21 -80 14 -201 -15 -276 -42 -110 -142 -210 -251 -251 -46 -17 -72 -20 -155 -17 -88 3 -107 7 -155 33 -73 40 -157 126 -200 205 -34 64 -35 67 -35 185 0 112 2 124 29 179 37 76 133 172 211 211 56 28 68 30 170 30 104 0 114 -2 175 -32 36 -18 89 -53 117 -78 33 -29 57 -44 65 -39 7 4 75 55 151 113 l137 104 0 379 0 378 -200 0 -200 0 0 -236z"/>
  <!-- I1 --> <path transform="translate(80,0)" d="M2205 2473 c-75 -39 -115 -100 -115 -173 0 -99 92 -190 191 -190 153 0 246 193 146 306 -60 69 -154 93 -222 57z"/>
  <!-- I1 --> <path transform="translate(80,0)" d="M2080 1385 l0 -515 200 0 200 0 0 515 0 515 -200 0 -200 0 0 -515z"/>
  <!-- G --> <path transform="translate(160,0)" d="M3235 2475 c-284 -62 -533 -304 -612 -595 -27 -101 -25 -311 5 -414 74 -258 275 -469 529 -557 101 -35 316 -41 457 -14 l39 8 -5 -94 c-6 -108 -28 -174 -82 -248 l-37 -49 53 -49 c166 -154 203 -183 234 -183 44 0 148 168 193 313 21 69 25 121 36 439 l5 157 -137 104 c-76 57 -144 107 -151 111 -8 5 -32 -10 -64 -38 -28 -25 -79 -60 -112 -78 -59 -32 -65 -33 -176 -33 -114 0 -115 0 -187 39 -89 47 -154 115 -196 204 -30 63 -32 74 -32 177 0 104 2 113 33 178 42 86 128 174 208 213 54 27 68 29 169 29 101 0 115 -2 169 -29 79 -39 165 -127 207 -211 29 -59 34 -81 37 -159 3 -65 0 -107 -12 -145 -9 -30 -16 -58 -16 -63 0 -4 90 -8 199 -8 149 0 202 3 208 13 12 18 7 325 -6 377 -37 144 -110 271 -220 381 -124 124 -252 193 -419 225 -90 17 -236 17 -317 -1z"/>
  <!-- I2 --> <path transform="translate(240,0)" d="M4455 2476 c-38 -17 -90 -72 -104 -109 -34 -90 10 -191 103 -239 148 -76 323 101 247 250 -48 94 -158 137 -246 98z"/>
  <!-- I2 --> <path transform="translate(240,0)" d="M4330 1385 l0 -515 200 0 200 0 0 515 0 515 -200 0 -200 0 0 -515z"/>
  <!-- S --> <path transform="translate(320,0)" d="M5420 2456 c-221 -77 -389 -221 -480 -411 -73 -151 -81 -189 -82 -374 0 -87 2 -164 6 -170 5 -8 168 -11 582 -11 412 0 574 -3 574 -11 0 -6 -30 -41 -67 -78 -89 -88 -159 -123 -262 -129 -119 -7 -177 10 -281 80 l-90 61 -33 -23 c-76 -55 -257 -202 -257 -209 0 -13 121 -125 173 -160 68 -47 160 -87 252 -112 110 -29 297 -29 407 0 264 69 469 268 560 541 29 88 32 105 32 240 1 80 -2 157 -7 173 l-7 27 -581 0 -581 0 20 33 c27 42 142 140 201 169 40 20 61 23 161 23 109 0 118 -2 165 -29 28 -16 78 -51 112 -78 43 -34 67 -47 77 -41 44 25 275 210 276 220 0 6 -44 48 -97 93 -107 89 -256 170 -351 189 -29 6 -121 11 -205 10 -131 0 -161 -3 -217 -23z"/>
  <!-- T --> <path transform="translate(400,0)" d="M6680 2740 l0 -240 -75 0 -75 0 0 -190 0 -190 73 0 74 0 6 -182 c4 -99 7 -285 7 -413 l0 -231 31 -85 c38 -104 98 -222 140 -271 54 -66 66 -60 286 144 l53 49 -40 58 c-78 114 -75 90 -78 534 l-3 397 75 0 76 0 0 190 0 190 -75 0 -75 0 0 240 0 240 -200 0 -200 0 0 -240z"/>
  <!-- R --> <path transform="translate(480,0)" d="M7450 1685 l0 -815 200 0 200 0 0 460 0 461 26 52 c59 118 151 209 245 243 32 11 184 44 205 44 9 0 35 299 28 326 -8 31 -18 33 -120 23 -126 -12 -217 -34 -306 -73 l-78 -34 0 64 0 64 -200 0 -200 0 0 -815z"/>
  <!-- A --> <path transform="translate(560,0)" d="M8940 2456 c-165 -59 -252 -116 -369 -243 -79 -86 -140 -199 -173 -322 -29 -110 -29 -296 1 -409 67 -257 268 -475 512 -556 201 -67 420 -54 622 38 l77 35 0 -64 0 -65 190 0 190 0 -6 398 c-3 218 -9 447 -13 507 l-6 110 -202 3 c-112 1 -203 0 -203 -4 0 -3 7 -34 16 -68 21 -80 14 -201 -15 -276 -42 -110 -142 -210 -251 -251 -46 -17 -72 -20 -155 -17 -88 3 -107 7 -155 33 -73 40 -157 126 -200 205 -34 64 -35 67 -35 185 0 112 2 124 29 178 40 83 128 170 213 210 63 30 75 32 173 32 97 0 110 -2 170 -31 36 -17 88 -52 117 -78 37 -33 57 -45 67 -39 43 24 276 210 276 220 0 6 -44 48 -97 93 -107 89 -256 170 -351 189 -29 6 -121 11 -205 10 -132 0 -161 -4 -217 -23z"/>
  <!-- T2 --> <path transform="translate(640,0)" d="M10220 2740 l0 -240 -75 0 -75 0 0 -190 0 -190 73 0 74 0 6 -182 c4 -99 7 -285 7 -413 l0 -231 31 -85 c38 -104 98 -222 140 -271 54 -66 66 -60 286 144 l53 49 -40 58 c-78 114 -75 90 -78 534 l-3 397 75 0 76 0 0 190 0 190 -75 0 -75 0 0 240 0 240 -200 0 -200 0 0 -240z"/>
  <!-- U --> <path transform="translate(720,0)" d="M10947 2018 l6 -483 38 -100 c21 -55 56 -129 76 -165 51 -86 180 -215 275 -274 150 -92 234 -108 636 -121 l192 -6 0 816 0 815 -200 0 -200 0 0 -618 0 -619 -62 9 c-139 18 -290 132 -339 253 -24 60 -24 61 -27 518 l-3 457 -199 0 -199 0 6 -482z"/>
  <!-- M --> <path transform="translate(800,0)" d="M12945 2476 c-225 -51 -441 -220 -545 -426 -83 -164 -80 -145 -90 -624 -5 -237 -10 -459 -10 -493 l0 -63 199 0 200 0 3 458 c5 544 0 519 112 638 l75 79 1 -397 0 -398 220 0 220 0 0 395 c0 233 4 395 9 395 5 0 41 -35 80 -77 108 -117 104 -94 109 -635 l4 -458 199 0 199 0 0 28 c-3 372 -22 924 -35 984 -30 150 -133 308 -280 431 -79 66 -175 116 -285 147 -96 28 -297 36 -385 16z"/>
</g>

</g>
</g>
</svg>
